<svg width="387" height="118" viewBox="0 0 387 118" fill="none" xmlns="http://www.w3.org/2000/svg">
<path d="M0 89V87.848C5.504 88.104 8.192 84.52 8.192 70.952V19.624C8.192 6.056 5.504 2.34399 0 2.6V1.448H47.744C58.112 1.448 70.656 5.28799 70.656 17.832C70.656 30.76 59.904 36.904 49.28 41.512C62.08 41.896 71.808 51.112 71.808 65.448C71.808 79.912 62.08 89 47.744 89H0ZM20.352 58.152V86.696H40.32C54.912 86.696 61.44 72.488 59.136 60.84C56.96 49.064 46.848 43.432 35.968 47.272C30.464 49.192 24.064 53.672 20.352 58.152ZM20.352 3.752V54.696C27.008 48.04 37.376 42.92 45.696 36.904C52.352 32.04 58.368 26.152 58.368 17.32C58.368 6.43999 47.104 3.752 38.144 3.752H20.352ZM82.692 46.12C82.692 32.552 80.004 28.84 74.5 29.096V27.944C82.052 27.944 90.756 24.488 94.212 19.496V71.592C94.212 79.272 98.052 82.472 103.172 82.6C110.724 82.6 119.172 76.072 124.932 71.08V46.12C124.932 32.552 122.244 28.84 116.74 29.096V27.944C124.164 27.944 132.868 24.488 136.324 19.496L136.452 72.36C136.58 84.776 139.268 88.104 144.644 87.848V89H132.228C126.468 89 124.932 85.416 124.932 80.296V74.28C116.868 81.832 104.836 89 95.364 89C86.148 89 82.692 82.6 82.692 74.152V46.12ZM163.221 26.664L182.421 81.448L199.061 34.088C199.701 32.04 199.829 29.992 199.189 27.944C198.805 26.92 198.421 26.024 198.165 25.128C196.885 21.416 194.581 20.392 190.613 20.648V19.496C196.757 19.496 205.973 19.496 211.989 19.496V20.648C208.021 20.392 205.461 22.44 204.181 26.28L178.837 98.856C175.253 108.84 167.957 115.496 156.949 115.496C150.933 115.496 144.789 113.576 140.181 109.864L144.277 99.112C150.421 107.56 158.485 117.416 168.981 109.352C172.309 106.792 174.997 102.824 176.661 98.088L179.861 89H178.069C173.973 89 172.437 87.464 171.029 83.752L151.061 26.664C149.653 22.696 147.477 20.392 143.125 20.648V19.496H168.341V20.648C163.989 20.392 161.685 22.312 163.221 26.664ZM259.026 1.448C283.218 1.448 302.802 21.032 302.802 45.224C302.802 69.416 283.218 89 259.026 89C234.834 89 215.25 69.416 215.25 45.224C215.25 21.032 234.834 1.448 259.026 1.448ZM244.946 6.312C228.562 12.2 221.65 34.344 229.458 55.976C237.266 77.48 256.722 90.152 273.106 84.264C289.362 78.376 296.402 56.104 288.594 34.6C280.786 13.096 261.202 0.423996 244.946 6.312ZM386.622 83.752C384.702 87.464 380.99 89 377.278 89C369.598 89 366.142 84.264 363.71 78.248C357.95 64.168 358.334 47.272 352.83 33.064C348.99 23.208 341.182 24.104 334.142 30.12C331.198 32.68 328.51 36.008 326.462 38.952V70.952C326.462 84.52 329.15 88.104 334.654 87.848V89H306.75V87.848C312.254 88.104 314.942 84.52 314.942 70.952V46.12C314.942 32.552 312.254 28.84 306.75 29.096V27.944C314.302 27.944 323.006 24.488 326.462 19.496V34.856C332.094 27.304 339.518 19.496 348.734 19.496C354.75 19.496 360.126 22.568 363.454 29.736C370.238 44.2 369.726 68.776 377.406 80.296C379.07 82.728 382.526 85.544 385.726 82.984L386.622 83.752Z" fill="white"/>
</svg>
